<svg width="40" height="40" viewBox="0 0 40 40" fill="none" xmlns="http://www.w3.org/2000/svg">
<path d="M1 4C1 2.34315 2.34315 1 4 1H35V31H1V4Z" fill="#CCCCCC"/>
<path d="M35.5 0.5C33 0.5 7 0.5 4.5 0.5C2 0.5 0.5 2 0.5 4.5C0.5 6.49535 0.5 23.4609 0.5 31.5M35.5 0.5C38 0.5 39.5 2 39.5 4.5C39.5 7 39.5 33 39.5 35.5C39.5 38 38 39.5 35.5 39.5M35.5 0.5V31.5M35.5 39.5C33 39.5 7 39.5 4.5 39.5C2 39.5 0.5 38 0.5 35.5C0.5 34.9954 0.5 33.5332 0.5 31.5M35.5 39.5V31.5M0.5 31.5H35.5" stroke="black"/>
<circle cx="37.5" cy="3.5" r="0.5" fill="black"/>
<circle cx="37.5" cy="5.5" r="0.5" fill="black"/>
</svg>
