<svg width="58" height="58" viewBox="0 0 58 58" fill="none" xmlns="http://www.w3.org/2000/svg">
<path d="M6.5 58H10.5V55C10.5 54.448 10.947 54 11.5 54C12.053 54 12.5 54.448 12.5 55V58H13.5V55C13.5 54.448 13.947 54 14.5 54C15.053 54 15.5 54.448 15.5 55V58H16.5V55C16.5 54.448 16.947 54 17.5 54C18.053 54 18.5 54.448 18.5 55V58H38.5V55C38.5 54.448 38.947 54 39.5 54C40.053 54 40.5 54.448 40.5 55V58H41.5V55C41.5 54.448 41.947 54 42.5 54C43.053 54 43.5 54.448 43.5 55V58H44.5V55C44.5 54.448 44.947 54 45.5 54C46.053 54 46.5 54.448 46.5 55V58H47.5V55C47.5 54.448 47.947 54 48.5 54C49.053 54 49.5 54.448 49.5 55V58H50.5V55C50.5 54.448 50.947 54 51.5 54C52.053 54 52.5 54.448 52.5 55V58H54.5V0H6.5V58Z" fill="#5E5E60"/>
<path d="M39.5 54C38.947 54 38.5 54.448 38.5 55V58H40.5V55C40.5 54.448 40.053 54 39.5 54Z" fill="#F3CC6D"/>
<path d="M42.5 54C41.947 54 41.5 54.448 41.5 55V58H43.5V55C43.5 54.448 43.053 54 42.5 54Z" fill="#F3CC6D"/>
<path d="M45.5 54C44.947 54 44.5 54.448 44.5 55V58H46.5V55C46.5 54.448 46.053 54 45.5 54Z" fill="#F3CC6D"/>
<path d="M48.5 54C47.947 54 47.5 54.448 47.5 55V58H49.5V55C49.5 54.448 49.053 54 48.5 54Z" fill="#F3CC6D"/>
<path d="M51.5 54C50.947 54 50.5 54.448 50.5 55V58H52.5V55C52.5 54.448 52.053 54 51.5 54Z" fill="#F3CC6D"/>
<path d="M11.5 54C10.947 54 10.5 54.448 10.5 55V58H12.5V55C12.5 54.448 12.053 54 11.5 54Z" fill="#F3CC6D"/>
<path d="M14.5 54C13.947 54 13.5 54.448 13.5 55V58H15.5V55C15.5 54.448 15.053 54 14.5 54Z" fill="#F3CC6D"/>
<path d="M17.5 54C16.947 54 16.5 54.448 16.5 55V58H18.5V55C18.5 54.448 18.053 54 17.5 54Z" fill="#F3CC6D"/>
<path d="M25.5 31C25.5 30.4477 25.0523 30 24.5 30C23.9477 30 23.5 30.4477 23.5 31C23.5 31.5523 23.9477 32 24.5 32C25.0523 32 25.5 31.5523 25.5 31Z" fill="#E7ECED"/>
<path d="M28.5 31C28.5 30.4477 28.0523 30 27.5 30C26.9477 30 26.5 30.4477 26.5 31C26.5 31.5523 26.9477 32 27.5 32C28.0523 32 28.5 31.5523 28.5 31Z" fill="#F3CC6D"/>
<path d="M31.5 31C31.5 30.4477 31.0523 30 30.5 30C29.9477 30 29.5 30.4477 29.5 31C29.5 31.5523 29.9477 32 30.5 32C31.0523 32 31.5 31.5523 31.5 31Z" fill="#F3CC6D"/>
<path d="M16.5 31C16.5 30.4477 16.0523 30 15.5 30C14.9477 30 14.5 30.4477 14.5 31C14.5 31.5523 14.9477 32 15.5 32C16.0523 32 16.5 31.5523 16.5 31Z" fill="#F3CC6D"/>
<path d="M18.5 34C18.5 33.4477 18.0523 33 17.5 33C16.9477 33 16.5 33.4477 16.5 34C16.5 34.5523 16.9477 35 17.5 35C18.0523 35 18.5 34.5523 18.5 34Z" fill="#E7ECED"/>
<path d="M22.5 34C22.5 33.4477 22.0523 33 21.5 33C20.9477 33 20.5 33.4477 20.5 34C20.5 34.5523 20.9477 35 21.5 35C22.0523 35 22.5 34.5523 22.5 34Z" fill="#E7ECED"/>
<path d="M18.5 3C18.5 2.44772 18.0523 2 17.5 2C16.9477 2 16.5 2.44772 16.5 3C16.5 3.55228 16.9477 4 17.5 4C18.0523 4 18.5 3.55228 18.5 3Z" fill="#F3CC6D"/>
<path d="M25.5 3C25.5 2.44772 25.0523 2 24.5 2C23.9477 2 23.5 2.44772 23.5 3C23.5 3.55228 23.9477 4 24.5 4C25.0523 4 25.5 3.55228 25.5 3Z" fill="#F3CC6D"/>
<path d="M39.5 40C39.5 39.4477 39.0523 39 38.5 39C37.9477 39 37.5 39.4477 37.5 40C37.5 40.5523 37.9477 41 38.5 41C39.0523 41 39.5 40.5523 39.5 40Z" fill="#E7ECED"/>
<path d="M39.5 43C39.5 42.4477 39.0523 42 38.5 42C37.9477 42 37.5 42.4477 37.5 43C37.5 43.5523 37.9477 44 38.5 44C39.0523 44 39.5 43.5523 39.5 43Z" fill="#E7ECED"/>
<path d="M39.5 46C39.5 45.4477 39.0523 45 38.5 45C37.9477 45 37.5 45.4477 37.5 46C37.5 46.5523 37.9477 47 38.5 47C39.0523 47 39.5 46.5523 39.5 46Z" fill="#F3CC6D"/>
<path d="M27.5 55C27.5 54.4477 27.0523 54 26.5 54C25.9477 54 25.5 54.4477 25.5 55C25.5 55.5523 25.9477 56 26.5 56C27.0523 56 27.5 55.5523 27.5 55Z" fill="#F3CC6D"/>
<path d="M30.5 55C30.5 54.4477 30.0523 54 29.5 54C28.9477 54 28.5 54.4477 28.5 55C28.5 55.5523 28.9477 56 29.5 56C30.0523 56 30.5 55.5523 30.5 55Z" fill="#F3CC6D"/>
<path d="M33.5 55C33.5 54.4477 33.0523 54 32.5 54C31.9477 54 31.5 54.4477 31.5 55C31.5 55.5523 31.9477 56 32.5 56C33.0523 56 33.5 55.5523 33.5 55Z" fill="#F3CC6D"/>
<path d="M19.5 31C19.5 30.4477 19.0523 30 18.5 30C17.9477 30 17.5 30.4477 17.5 31C17.5 31.5523 17.9477 32 18.5 32C19.0523 32 19.5 31.5523 19.5 31Z" fill="#F3CC6D"/>
<path d="M22.5 31C22.5 30.4477 22.0523 30 21.5 30C20.9477 30 20.5 30.4477 20.5 31C20.5 31.5523 20.9477 32 21.5 32C22.0523 32 22.5 31.5523 22.5 31Z" fill="#E7ECED"/>
<path d="M30.5 7.709V24.291C30.5 25.235 29.735 26 28.791 26H12.209C11.265 26 10.5 25.235 10.5 24.291V7.71C10.5 6.766 11.265 6.001 12.209 6.001H28.79C29.735 6 30.5 6.765 30.5 7.709Z" fill="#28812F"/>
<path d="M3.5 22V26H6.5V22H3.5Z" fill="#546A79"/>
<path d="M3.5 18V22H6.5V18H3.5Z" fill="#38454F"/>
<path d="M3.5 14V18H6.5V14H3.5Z" fill="#546A79"/>
<path d="M3.5 10V14H6.5V10H3.5Z" fill="#38454F"/>
<path d="M3.5 6V10H6.5V6H3.5Z" fill="#546A79"/>
<path d="M37.5 4V6C37.5 6.553 37.053 7 36.5 7C35.947 7 35.5 6.553 35.5 6V4C35.5 3.447 35.947 3 36.5 3C37.053 3 37.5 3.447 37.5 4Z" fill="#BFA380"/>
<path d="M41.5 4V6C41.5 6.553 41.053 7 40.5 7C39.947 7 39.5 6.553 39.5 6V4C39.5 3.447 39.947 3 40.5 3C41.053 3 41.5 3.447 41.5 4Z" fill="#BFA380"/>
<path d="M37.5 34V32C37.5 31.448 37.053 31 36.5 31C35.947 31 35.5 31.448 35.5 32V34C35.5 34.552 35.947 35 36.5 35C37.053 35 37.5 34.552 37.5 34Z" fill="#8F8F99"/>
<path d="M39.5 32V34C39.5 34.552 39.947 35 40.5 35C41.053 35 41.5 34.552 41.5 34V32C41.5 31.448 41.053 31 40.5 31C39.947 31 39.5 31.448 39.5 32Z" fill="#8F8F99"/>
<path d="M43.5 32V34C43.5 34.552 43.947 35 44.5 35C45.053 35 45.5 34.552 45.5 34V32C45.5 31.448 45.053 31 44.5 31C43.947 31 43.5 31.448 43.5 32Z" fill="#8F8F99"/>
<path d="M47.5 32V34C47.5 34.552 47.947 35 48.5 35C49.053 35 49.5 34.552 49.5 34V32C49.5 31.448 49.053 31 48.5 31C47.947 31 47.5 31.448 47.5 32Z" fill="#8F8F99"/>
<path d="M45.5 4V6C45.5 6.553 45.053 7 44.5 7C43.947 7 43.5 6.553 43.5 6V4C43.5 3.447 43.947 3 44.5 3C45.053 3 45.5 3.447 45.5 4Z" fill="#BFA380"/>
<path d="M49.5 4V6C49.5 6.553 49.053 7 48.5 7C47.947 7 47.5 6.553 47.5 6V4C47.5 3.447 47.947 3 48.5 3C49.053 3 49.5 3.447 49.5 4Z" fill="#BFA380"/>
<path d="M45.5 38V40C45.5 40.552 45.053 41 44.5 41C43.947 41 43.5 40.552 43.5 40V38C43.5 37.448 43.947 37 44.5 37C45.053 37 45.5 37.448 45.5 38Z" fill="#F3CC6D"/>
<path d="M48.5 38V40C48.5 40.552 48.053 41 47.5 41C46.947 41 46.5 40.552 46.5 40V38C46.5 37.448 46.947 37 47.5 37C48.053 37 48.5 37.448 48.5 38Z" fill="#F3CC6D"/>
<path d="M45.5 46V48C45.5 48.552 45.053 49 44.5 49C43.947 49 43.5 48.552 43.5 48V46C43.5 45.448 43.947 45 44.5 45C45.053 45 45.5 45.448 45.5 46Z" fill="#F3CC6D"/>
<path d="M48.5 46V48C48.5 48.552 48.053 49 47.5 49C46.947 49 46.5 48.552 46.5 48V46C46.5 45.448 46.947 45 47.5 45C48.053 45 48.5 45.448 48.5 46Z" fill="#F3CC6D"/>
<path d="M26.5 48C26.5 48.552 26.053 49 25.5 49H23.5C22.947 49 22.5 48.552 22.5 48C22.5 47.448 22.947 47 23.5 47H25.5C26.053 47 26.5 47.448 26.5 48Z" fill="#38454F"/>
<path d="M32.5 40C32.5 40.552 32.053 41 31.5 41H29.5C28.947 41 28.5 40.552 28.5 40C28.5 39.448 28.947 39 29.5 39H31.5C32.053 39 32.5 39.448 32.5 40Z" fill="#38454F"/>
<path d="M29.5 46V51H34.5V46H29.5Z" fill="#333331"/>
<path d="M15.5 11V21H25.5V11H15.5Z" fill="#333331"/>
<path d="M12.5 18V20H15.5V18H12.5Z" fill="#BFA380"/>
<path d="M12.5 15V17H15.5V15H12.5Z" fill="#BFA380"/>
<path d="M12.5 12V14H15.5V12H12.5Z" fill="#BFA380"/>
<path d="M25.5 18V20H28.5V18H25.5Z" fill="#BFA380"/>
<path d="M25.5 15V17H28.5V15H25.5Z" fill="#BFA380"/>
<path d="M25.5 12V14H28.5V12H25.5Z" fill="#BFA380"/>
<path d="M16.5 8V11H18.5V8H16.5Z" fill="#BFA380"/>
<path d="M19.5 8V11H21.5V8H19.5Z" fill="#BFA380"/>
<path d="M22.5 8V11H24.5V8H22.5Z" fill="#BFA380"/>
<path d="M16.5 21V24H18.5V21H16.5Z" fill="#BFA380"/>
<path d="M19.5 21V24H21.5V21H19.5Z" fill="#BFA380"/>
<path d="M22.5 21V24H24.5V21H22.5Z" fill="#BFA380"/>
<path d="M6.5 38V42H29.5V38H6.5Z" fill="#353A37"/>
<path d="M6.5 46V50H23.5V46H6.5Z" fill="#353A37"/>
<path d="M42.5 40V46H49.5V40H42.5Z" fill="#333331"/>
<path d="M42.5 6V32H46.5V6H42.5Z" fill="#38454F"/>
<path d="M38.5 6V32H42.5V6H38.5Z" fill="#DD352E"/>
<path d="M52 41V45H54V41H52Z" fill="#DD352E"/>
<path d="M52 46V50H54V46H52Z" fill="#DD352E"/>
<path d="M46.5 30V32H50.5V30H46.5Z" fill="#DD352E"/>
<path d="M46.5 10V28H50.5V10H46.5Z" fill="#DD352E"/>
<path d="M46.5 6V8H50.5V6H46.5Z" fill="#DD352E"/>
<path d="M34.5 10V28H38.5V10H34.5Z" fill="#38454F"/>
<path d="M34.5 6V8H38.5V6H34.5Z" fill="#38454F"/>
<path d="M34.5 30V32H38.5V30H34.5Z" fill="#38454F"/>
<path d="M38.5 30H46.5H50.5V28H46.5H38.5H34.5V30H38.5Z" fill="#283238"/>
<path d="M34.5 10H38.5H46.5H50.5V8H46.5H38.5H34.5V10Z" fill="#283238"/>
<path d="M4.5 31C3.947 31 3.5 31.448 3.5 32C3.5 32.552 3.947 33 4.5 33H6.5V31H4.5Z" fill="#CBD4D8"/>
<path d="M4.5 28C3.947 28 3.5 28.448 3.5 29C3.5 29.552 3.947 30 4.5 30H6.5V28H4.5Z" fill="#CBD4D8"/>
<path d="M4.5 2C3.947 2 3.5 2.447 3.5 3C3.5 3.553 3.947 4 4.5 4H6.5V2H4.5Z" fill="#CBD4D8"/>
</svg>
