<svg width="48" height="100" viewBox="0 0 48 100" fill="none" xmlns="http://www.w3.org/2000/svg">
<g clip-path="url(#clip0_127_133)">
<path d="M38.7692 85.1818L38.7692 14.8182C38.7692 10.5182 37.0246 7 34.8923 7L19.3846 7L19.3846 93H34.8923C37.0246 93 38.7692 89.4818 38.7692 85.1818Z" fill="#367B39"/>
<path d="M37.0909 85.0649L37.0909 14.9351C37.0909 10.6493 35.4078 7.14285 33.3506 7.14285L18.3896 7.14285L18.3896 92.8571H33.3506C35.4078 92.8571 37.0909 89.3506 37.0909 85.0649Z" fill="#4CAF50"/>
<path d="M19 7H16C14.35 7 13 10.5182 13 14.8182L13 48.0455H16.75C17.2 48.0455 17.5 48.8273 17.5 50C17.5 51.1727 17.2 51.9545 16.75 51.9545H13V85.1818C13 89.4818 14.35 93 16 93H19L19 7Z" fill="#37474F"/>
<path d="M17 17V20.8824H13V17H17ZM17 24.7647V28.6471H13V24.7647H17ZM17 32.5294V36.4118H13V32.5294H17ZM17 40.2941V44.1765H13L13 40.2941H17ZM17 55.8235V59.7059H13L13 55.8235H17ZM17 63.5882V67.4706H13V63.5882H17ZM17 71.3529V75.2353H13V71.3529H17ZM17 79.1176V83H13V79.1176H17Z" fill="#FF9800"/>
<path d="M31.4805 42.2078L31.4805 57.7922H22.1299V42.2078H31.4805ZM31.4805 65.5844V81.1688H22.1299L22.1299 65.5844H31.4805ZM31.4805 18.8312V34.4156H22.1299V18.8312H31.4805Z" fill="#37474F"/>
</g>
<defs>
<clipPath id="clip0_127_133">
<rect width="100" height="48" fill="white" transform="matrix(0 1 -1 0 48 0)"/>
</clipPath>
</defs>
</svg>
