<svg width="252" height="103" viewBox="0 0 252 103" fill="none" xmlns="http://www.w3.org/2000/svg">
<rect x="48" y="27" width="156" height="45" fill="#DD352E"/>
<path d="M204 81.193V21.0829C204 18.8298 205.83 17 208.083 17L230.638 17C232.894 17 234.724 18.8298 234.724 21.0829V81.1896C234.724 83.4461 232.894 85.2759 230.641 85.2759H208.086C205.83 85.2759 204 83.4461 204 81.193Z" fill="#38454F"/>
<path d="M221.069 68.2069V34.069C221.069 32.1812 222.595 30.6552 224.483 30.6552C226.371 30.6552 227.896 32.1812 227.896 34.069V68.2069C227.896 70.0948 226.371 71.6207 224.483 71.6207C222.595 71.6207 221.069 70.0948 221.069 68.2069Z" fill="#546A79"/>
<path d="M210.828 68.2069V34.069C210.828 32.1812 212.354 30.6552 214.241 30.6552C216.129 30.6552 217.655 32.1812 217.655 34.069V68.2069C217.655 70.0948 216.129 71.6207 214.241 71.6207C212.354 71.6207 210.828 70.0948 210.828 68.2069Z" fill="#546A79"/>
<path d="M251.793 44.3104H244.966C243.078 44.3104 241.552 42.7844 241.552 40.8966C241.552 39.0087 243.078 37.4828 244.966 37.4828H251.793V27.2414L234.724 27.2414V75.0345H251.793V44.3104Z" fill="#546A79"/>
<path d="M241.552 40.8966C241.552 42.7844 243.078 44.3104 244.966 44.3104H251.793V37.4828H244.966C243.078 37.4828 241.552 39.0088 241.552 40.8966Z" fill="#839594"/>
<path d="M48.7931 21.0829V81.193C48.7931 83.4461 46.9633 85.2759 44.7102 85.2759H22.1519C19.8988 85.2759 18.069 83.4461 18.069 81.193L18.069 21.0863C18.069 18.8298 19.8988 17 22.1519 17H44.7068C46.9633 17 48.7931 18.8298 48.7931 21.0829Z" fill="#38454F"/>
<path d="M31.7241 34.069L31.7241 68.2069C31.7241 70.0947 30.1982 71.6207 28.3103 71.6207C26.4225 71.6207 24.8965 70.0947 24.8965 68.2069L24.8965 34.069C24.8965 32.1811 26.4225 30.6552 28.3103 30.6552C30.1982 30.6552 31.7241 32.1811 31.7241 34.069Z" fill="#546A79"/>
<path d="M41.9655 34.069V68.2069C41.9655 70.0947 40.4396 71.6207 38.5517 71.6207C36.6639 71.6207 35.1379 70.0947 35.1379 68.2069V34.069C35.1379 32.1811 36.6639 30.6552 38.5517 30.6552C40.4396 30.6552 41.9655 32.1811 41.9655 34.069Z" fill="#546A79"/>
<path d="M1 57.9655H7.82759C9.71541 57.9655 11.2414 59.4915 11.2414 61.3793C11.2414 63.2672 9.71541 64.7931 7.82759 64.7931H1L1 75.0345H18.069L18.069 27.2414H1L1 57.9655Z" fill="#546A79"/>
<path d="M11.2414 61.3793C11.2414 59.4915 9.71541 57.9655 7.82759 57.9655H1L1 64.7931H7.82759C9.71541 64.7931 11.2414 63.2671 11.2414 61.3793Z" fill="#839594"/>
<rect x="62" y="37" width="107" height="5" rx="2.5" fill="#B02721"/>
<rect x="62" y="37" width="107" height="5" rx="2.5" fill="#B02721"/>
<rect x="62" y="45" width="107" height="5" rx="2.5" fill="#A70F0F"/>
<rect x="62" y="45" width="107" height="5" rx="2.5" fill="#A70F0F"/>
</svg>
