<svg width="58" height="58" viewBox="0 0 58 58" fill="none" xmlns="http://www.w3.org/2000/svg">
<path d="M2.089 8L55.911 8C57.065 8 58 8.935 58 10.089L58 47.911C58 49.065 57.065 50 55.911 50L2.089 50C0.935001 50 0 49.065 0 47.911L0 10.089C0 8.935 0.935001 8 2.089 8Z" fill="#AFB6BB"/>
<path d="M54 11C53.4477 11 53 11.4477 53 12C53 12.5523 53.4477 13 54 13C54.5523 13 55 12.5523 55 12C55 11.4477 54.5523 11 54 11Z" fill="#E7ECED"/>
<path d="M4 45C3.44772 45 3 45.4477 3 46C3 46.5523 3.44772 47 4 47C4.55228 47 5 46.5523 5 46C5 45.4477 4.55228 45 4 45Z" fill="#E7ECED"/>
<path d="M4 11C3.44772 11 3 11.4477 3 12C3 12.5523 3.44772 13 4 13C4.55228 13 5 12.5523 5 12C5 11.4477 4.55228 11 4 11Z" fill="#E7ECED"/>
<path d="M19.5554 16.45C15.7891 18.1047 13.5894 21.3889 14.6423 23.7855C15.6952 26.1821 19.602 26.7836 23.3683 25.129C27.1346 23.4743 29.3343 20.1901 28.2814 17.7935C27.2285 15.3969 23.3218 14.7954 19.5554 16.45Z" fill="#48A0DC" stroke="white" stroke-width="2" stroke-miterlimit="10"/>
<path d="M50 26H58V47.911C58 49.065 57.065 50 55.911 50L26 50C26 36.745 36.745 26 50 26Z" fill="#E7ECED"/>
<path d="M0 16H4L6 19L6 40H0L0 16Z" fill="#283238"/>
<path d="M0 38H4V36H0L0 38Z" fill="#D3AA6E"/>
<path d="M0 35H4V33H0L0 35Z" fill="#D3AA6E"/>
<path d="M0 32H4V30H0L0 32Z" fill="#D3AA6E"/>
<path d="M0 29H4V27H0L0 29Z" fill="#D3AA6E"/>
<path d="M0 20H3L3 18H0L0 20Z" fill="#D3AA6E"/>
<path d="M0 23H4V21H0L0 23Z" fill="#D3AA6E"/>
<path d="M53 33H55V31H53V33Z" fill="#6C797A"/>
<path d="M53 36H55V34H53V36Z" fill="#6C797A"/>
<path d="M53 39H55V37H53V39Z" fill="#6C797A"/>
<path d="M53 42H55V40H53V42Z" fill="#6C797A"/>
<path d="M53 45H55V43H53V45Z" fill="#6C797A"/>
<path d="M36 45H49V43H36V45Z" fill="#6C797A"/>
<path d="M39 42H49V40H39V42Z" fill="#6C797A"/>
<path d="M38 39H49V37H38V39Z" fill="#6C797A"/>
<path d="M45 36H49V34H45V36Z" fill="#6C797A"/>
</svg>
