<svg width="59" height="26" viewBox="0 0 59 26" fill="none" xmlns="http://www.w3.org/2000/svg">
<path d="M59 5.50847H4V19.6102H59V5.50847Z" fill="#2C3A45"/>
<path d="M7 7.27119C7.55228 7.27119 8 7.07389 8 6.83051C8 6.58713 7.55228 6.38983 7 6.38983C6.44772 6.38983 6 6.58713 6 6.83051C6 7.07389 6.44772 7.27119 7 7.27119Z" fill="#546A79"/>
<path d="M7 18.7288C7.55228 18.7288 8 18.5315 8 18.2881C8 18.0448 7.55228 17.8475 7 17.8475C6.44772 17.8475 6 18.0448 6 18.2881C6 18.5315 6.44772 18.7288 7 18.7288Z" fill="#546A79"/>
<path d="M56 7.27119C56.5523 7.27119 57 7.07389 57 6.83051C57 6.58713 56.5523 6.38983 56 6.38983C55.4477 6.38983 55 6.58713 55 6.83051C55 7.07389 55.4477 7.27119 56 7.27119Z" fill="#546A79"/>
<path d="M56 18.7288C56.5523 18.7288 57 18.5315 57 18.2881C57 18.0448 56.5523 17.8475 56 17.8475C55.4477 17.8475 55 18.0448 55 18.2881C55 18.5315 55.4477 18.7288 56 18.7288Z" fill="#546A79"/>
<path d="M3 12.1186H0V17.8475H3V12.1186Z" fill="#839594"/>
<path d="M3 11.678H1C0.447 11.678 0 11.481 0 11.2373C0 10.9936 0.447 10.7966 1 10.7966H3C3.553 10.7966 4 10.9936 4 11.2373C4 11.481 3.553 11.678 3 11.678Z" fill="#F3CC6D"/>
<path d="M3 19.1695H1C0.447 19.1695 0 18.9725 0 18.7288C0 18.4851 0.447 18.2881 1 18.2881H3C3.553 18.2881 4 18.4851 4 18.7288C4 18.9725 3.553 19.1695 3 19.1695Z" fill="#F3CC6D"/>
<path d="M3 6.83051H0V8.59322H3V6.83051Z" fill="#839594"/>
<path d="M24.389 17.0344C22.629 16.1389 21.415 14.8328 21.094 13.3433C21.091 13.3323 21.089 13.3213 21.086 13.3102C21.035 13.0639 21 12.8145 21 12.5593C21 12.3042 21.035 12.0547 21.086 11.8084C21.089 11.7974 21.091 11.7864 21.094 11.7754C21.415 10.2859 22.629 8.9797 24.389 8.08424C25.17 7.62329 26.059 7.20068 27.056 6.83051H17C12.029 6.83051 8 9.39526 8 12.5593C8 15.7234 12.029 18.2881 17 18.2881H27.057C26.059 17.918 25.171 17.4949 24.389 17.0344Z" fill="#6C797A"/>
<path d="M34.846 18.2881C29.534 17.3601 26 15.0844 26 12.5593C26 10.0342 29.534 7.75858 34.846 6.83051H45.155C50.466 7.75858 54 10.0342 54 12.5593C54 15.0844 50.466 17.3601 45.154 18.2881H34.846Z" fill="#232C31"/>
<path d="M40 13.8814C41.6569 13.8814 43 13.2895 43 12.5593C43 11.8292 41.6569 11.2373 40 11.2373C38.3431 11.2373 37 11.8292 37 12.5593C37 13.2895 38.3431 13.8814 40 13.8814Z" fill="#CBD4D8"/>
<path d="M49.903 13.1053C50.022 12.8854 49.544 12.7043 49.055 12.7735C47.395 13.0093 44.965 12.9709 42.962 12.3932C42.978 12.4483 43 12.5025 43 12.5593C43 13.134 42.163 13.6183 41 13.8003C41 13.8003 44.823 15.0381 48 15.2034C48.896 14.7446 49.557 13.7417 49.903 13.1053Z" fill="#546A79"/>
<path d="M30.019 12.0133C29.9 12.2332 30.378 12.4143 30.867 12.3452C32.527 12.1094 34.957 12.1477 36.96 12.7255C36.944 12.6704 36.922 12.6162 36.922 12.5598C36.922 11.9851 37.759 11.5008 38.922 11.3188C38.922 11.3188 35.099 10.0809 31.922 9.9157C31.025 10.374 30.364 11.377 30.019 12.0133Z" fill="#546A79"/>
<path d="M34.343 16.2152C34.734 16.3619 35.317 16.2562 35.399 16.0327C35.676 15.2739 36.856 14.337 38.934 13.8131C38.816 13.7941 38.696 13.7782 38.581 13.7527C37.419 13.4918 36.82 12.9432 36.98 12.4038C36.98 12.4038 32.742 13.3428 30.965 14.5155C31.485 15.0756 33.213 15.7908 34.343 16.2152Z" fill="#546A79"/>
<path d="M45.5781 8.90346C45.1871 8.75671 44.6041 8.86247 44.5221 9.0859C44.2451 9.84475 43.0651 10.7816 40.9871 11.3056C41.1051 11.3245 41.2251 11.3404 41.3401 11.366C42.5021 11.6268 43.1011 12.1755 42.9411 12.7149C42.9411 12.7149 47.1791 11.7758 48.9561 10.6032C48.4361 10.0431 46.7081 9.32783 45.5781 8.90346Z" fill="#546A79"/>
<path d="M44.179 16.5642C44.666 16.4924 44.761 16.2174 44.368 16.0715C43.034 15.5762 41.82 14.6477 41.871 13.5932C41.774 13.628 41.681 13.665 41.572 13.6954C40.466 13.9999 39.09 13.9435 38.124 13.6055C38.124 13.6055 37.768 15.6899 39.133 16.9648C40.49 17.0569 42.771 16.7722 44.179 16.5642Z" fill="#546A79"/>
<path d="M35.743 8.55444C35.256 8.62627 35.161 8.90125 35.554 9.04712C36.888 9.54244 38.102 10.4709 38.051 11.5255C38.148 11.4907 38.241 11.4537 38.35 11.4233C39.456 11.1187 40.832 11.1752 41.798 11.5132C41.798 11.5132 42.154 9.42875 40.789 8.15386C39.431 8.06176 37.151 8.34644 35.743 8.55444Z" fill="#546A79"/>
<path d="M4 3.30508H1C0.447 3.30508 0 3.50207 0 3.74576C0 3.98946 0.447 4.18644 1 4.18644H3V22.2542C3 22.4979 3.447 22.6949 4 22.6949C4.553 22.6949 5 22.4979 5 22.2542V3.74576C5 3.50207 4.553 3.30508 4 3.30508Z" fill="#CBD4D8"/>
<path d="M59 3H5V6H59V3Z" fill="#3F515F"/>
</svg>
