<?xml version="1.0" encoding="iso-8859-1"?>
<!-- Uploaded to: SVG Repo, www.svgrepo.com, Generator: SVG Repo Mixer Tools -->
<svg fill="#3d3d3d" height="800px" width="800px" version="1.1" id="Layer_1" xmlns="http://www.w3.org/2000/svg" xmlns:xlink="http://www.w3.org/1999/xlink" 
	 viewBox="0 0 512 512" xml:space="preserve">
<g>
	<g>
		<path d="M499.2,396.8h-12.8V115.2c0-14.14-11.46-25.6-25.6-25.6H51.2c-14.14,0-25.6,11.46-25.6,25.6v281.6H12.8
			c-7.074,0-12.8,5.726-12.8,12.8c0,7.074,5.726,12.8,12.8,12.8h486.4c7.074,0,12.8-5.726,12.8-12.8
			C512,402.526,506.274,396.8,499.2,396.8z M409.6,396.8h-76.8v-25.6h76.8V396.8z M460.8,396.8h-25.6v-25.6
			c0-14.14-11.46-25.6-25.6-25.6h-76.8c-14.14,0-25.6,11.46-25.6,25.6v25.6h-256V115.2h409.6V396.8z"/>
	</g>
</g>
<g>
	<g>
		<path d="M177.237,343.953c-1.084-2.944-3.243-5.291-6.545-6.81c-1.988-0.768-5.171-1.391-9.071,0.085l-37.555,14.148
			l-6.409-16.998l32.239-12.143c3.234-1.22,5.666-3.447,7.049-6.511c1.263-2.876,1.365-5.939,0.265-8.849
			c-1.101-2.935-3.277-5.274-6.562-6.793c-1.98-0.768-5.171-1.391-9.071,0.077l-32.512,12.245l-5.794-13.943l36.855-13.884
			c3.123-1.178,5.564-3.447,6.946-6.468c1.263-2.876,1.365-5.939,0.265-8.849c-1.101-2.935-3.277-5.274-6.562-6.793
			c-2.842-1.101-5.948-1.092-8.96,0.043l-40.397,15.223c-7.202,2.714-10.334,7.663-11.708,11.401
			c-1.613,4.506-1.519,9.421,0.29,14.225l22.639,60.1c1.783,4.727,4.941,8.457,9.19,10.812c3.43,1.869,9.045,3.516,16.256,0.802
			l41.839-15.761c3.234-1.22,5.666-3.447,7.049-6.511C178.236,349.926,178.338,346.863,177.237,343.953z"/>
	</g>
</g>
<g>
	<g>
		<path d="M333.517,286.857l-16.555-43.955c-2.278-6.042-6.741-10.718-12.919-13.534c-11.716-5.308-27.503-0.845-36.062,9.387
			c-0.853,0.99-1.63,2.014-2.321,3.089c-0.503-0.188-1.007-0.35-1.519-0.503c-9.847-2.731-22.135,0.606-30.302,9.813
			c-5.82-2.082-12.553,0.87-15.044,6.4c-0.947,2.091-1.732,5.47-0.119,9.737l20.727,55.006c1.195,3.166,3.405,5.555,6.801,7.083
			c5.606,2.176,12.553-0.333,15.369-5.777c1.604-3.081,1.809-6.579,0.563-9.865l-15.266-40.499c0.802-2.816,1.724-4.386,2.415-5.257
			c2.116-2.671,8.098-4.002,8.354-3.917c0.188,0.094,0.777,0.375,1.365,1.937l16.136,42.837c1.195,3.166,3.405,5.555,6.801,7.083
			c5.606,2.176,12.553-0.333,15.369-5.777c1.604-3.081,1.801-6.579,0.563-9.865l-15.027-39.902c0.546-3.081,1.399-4.787,2.125-5.794
			c0.956-1.399,2.731-2.586,5.265-3.541c0.811-0.307,2.278-0.759,3.046-0.401c0.188,0.094,0.776,0.375,1.365,1.937l16.137,42.837
			c1.195,3.166,3.405,5.555,6.801,7.083c2.842,1.101,5.905,1.109,8.849,0c2.867-1.084,5.129-3.098,6.519-5.777
			C334.558,293.641,334.754,290.142,333.517,286.857z"/>
	</g>
</g>
<g>
	<g>
		<path d="M400.998,240.29c-2.552-2.005-5.854-2.833-9.139-2.338c-1.024,0.145-2.022,0.401-2.97,0.751l-3.2,1.596l-1.246,1.212
			c-2.697,2.594-4.036,6.059-3.755,9.293c0.06,2.278-0.324,3.942-1.143,4.958c-0.529,0.657-2.304,2.381-7.415,4.309
			c-3.686,1.391-6.485,1.092-9.37-0.99c-3.354-2.441-6.144-6.554-8.286-12.237c-2.082-5.538-2.679-10.394-1.741-14.515
			c0.794-3.695,2.662-5.845,6.238-7.194c4.207-1.587,6.46-1.545,7.27-1.408c0.777,0.154,1.954,0.555,2.961,1.749
			c2.065,3.226,5.316,5.163,9.097,5.436c1.835,0.128,3.644-0.137,5.402-0.794l2.79-1.417c2.594-1.732,4.395-4.207,5.035-6.699
			c1.118-3.405,0.606-7.091-1.732-10.547c-3.78-4.949-8.951-8.371-15.471-10.189c-7.228-1.911-15.036-1.323-23.177,1.741
			c-11.093,4.181-18.577,12.117-21.666,23.04c-2.475,9.122-1.741,19.063,2.193,29.508c4.053,10.76,9.992,18.748,17.647,23.723
			c9.259,6.059,20.173,6.98,31.573,2.688c8.542-3.217,14.916-7.945,19.038-14.148c3.029-4.736,4.855-10.59,5.453-17.971
			C405.47,245.683,403.695,242.065,400.998,240.29z"/>
	</g>
</g>
<g>
	<g>
		<path d="M432.708,182.212c-0.649-1.715-1.911-3.072-3.567-3.823l-3.422-0.836l-20.557,7.74c0.051-0.273,0.111-0.546,0.188-0.802
			c0.452-1.664,1.818-4.727,6.801-11.383c3.678-4.873,5.837-8.363,6.784-10.948c1.655-4.42,1.519-9.242-0.393-14.336
			c-1.818-4.83-5.018-8.346-9.515-10.487c-4.966-2.338-10.385-2.441-16.111-0.29c-5.786,2.185-9.796,5.837-11.938,10.889
			c-1.903,4.531-1.954,9.267,0.512,15.812l1.98,3.447l1.826,0.828c1.715,0.768,3.627,0.836,5.393,0.162l2.97-1.801l0.862-1.647
			c0.922-1.783,1.033-3.84-0.427-7.714c-0.563-1.485-0.58-2.748-0.043-4.045c0.367-0.896,1.161-2.193,3.678-3.14
			c2.543-0.956,4.045-0.503,4.941-0.068c1.22,0.589,2.039,1.553,2.603,3.038c0.802,2.133,0.845,4.019,0.162,5.837
			c-0.521,1.271-1.937,3.84-5.777,8.823c-4.036,5.086-6.63,10.095-7.723,14.865c-1.254,5.427-0.759,11.093,1.459,16.853l1.741,4.48
			l33.519-12.621c1.869-0.708,3.277-2.099,3.874-3.661l0.887-3.294L432.708,182.212z"/>
	</g>
</g>
<g>
	<g>
		<path d="M218.641,305.886c-2.355-6.281-9.335-9.438-15.599-7.074l-22.665,8.542c-6.263,2.355-9.421,9.336-7.066,15.607
			c2.355,6.263,9.335,9.421,15.599,7.066l22.665-8.542C217.839,319.13,220.996,312.149,218.641,305.886z"/>
	</g>
</g>
<g>
	<g>
		<path d="M205.833,271.863c-2.364-6.263-9.335-9.421-15.607-7.066l-22.664,8.542c-6.263,2.355-9.421,9.335-7.066,15.599
			c2.364,6.281,9.344,9.438,15.607,7.074l22.665-8.542C205.03,285.107,208.188,278.135,205.833,271.863z"/>
	</g>
</g>
</svg>