<svg width="800" height="800" viewBox="0 0 800 800" fill="none" xmlns="http://www.w3.org/2000/svg">
<g clip-path="url(#clip0_108_2)">
<path d="M760 80H420V20C420 8.94688 411.053 0 400 0C388.947 0 380 8.94688 380 20V80H40C17.9063 80 0 97.9063 0 120V560C0 582.094 17.9063 600 40 600H244.173L181.2 773.159C177.414 783.545 182.786 795.012 193.147 798.786C195.427 799.612 197.733 799.998 200 799.998C208.159 799.998 215.841 794.958 218.786 786.839L286.733 600H380V720C380 731.053 388.947 740 400 740C411.053 740 420 731.053 420 720V600H513.267L581.214 786.841C584.159 794.959 591.841 800 600 800C602.267 800 604.573 799.614 606.841 798.787C617.214 795.014 622.587 783.547 618.787 773.161L555.827 600H760C782.094 600 800 582.094 800 560V120C800 97.9063 782.094 80 760 80ZM760 560H40V120H760V560Z" fill="#3D3D3D"/>
<path d="M600 480H200C188.947 480 180 488.947 180 500C180 511.053 188.947 520 200 520H600C611.053 520 620 511.053 620 500C620 488.947 611.053 480 600 480Z" fill="#3D3D3D"/>
<path d="M319 432H481.5M400.25 182V376.444M400.25 376.444L467.958 307M400.25 376.444L332.542 307" stroke="#3D3D3D" stroke-width="40" stroke-linecap="round" stroke-linejoin="round"/>
</g>
<defs>
<clipPath id="clip0_108_2">
<rect width="800" height="800" fill="white"/>
</clipPath>
</defs>
</svg>
